<svg version="1.1" viewBox="0.0 0.0 1920.0 300.0" fill="none" stroke="none" stroke-linecap="square" stroke-miterlimit="10" xmlns:xlink="http://www.w3.org/1999/xlink" xmlns="http://www.w3.org/2000/svg"><clipPath id="g1071d84b572_0_10.0"><path d="m0 0l1920.0 0l0 300.0l-1920.0 0l0 -300.0z" clip-rule="nonzero"/></clipPath><g clip-path="url(#g1071d84b572_0_10.0)"><path fill="#000000" fill-opacity="0.0" d="m0 0l1920.0 0l0 300.0l-1920.0 0z" fill-rule="evenodd"/><path fill="#000000" fill-opacity="0.0" d="m134.29921 19.102362l1651.4016 0l0 261.7953l-1651.4016 0z" fill-rule="evenodd"/><path fill="#004065" d="m200.50233 257.30548q-12.40625 0 -20.40625 -5.5q-8.0 -5.5 -12.796875 -15.203125q-4.796875 -9.703125 -7.109375 -22.390625q-2.296875 -12.703125 -2.890625 -27.296875q-0.59375 -14.609375 -0.59375 -29.609375q0 -15.609375 0.59375 -30.406242q0.59375 -14.796875 2.890625 -27.59375q2.3125 -12.796875 7.109375 -22.390625q4.796875 -9.609375 12.796875 -15.0q8.0 -5.40625 20.40625 -5.40625l0 18.796875q-6.203125 0 -9.90625 6.40625q-3.703125 6.390625 -5.5 17.59375q-1.796875 11.203125 -2.296875 26.109375q-0.5 14.890617 -0.5 31.890617q0 17.390625 0.5 32.203125q0.5 14.796875 2.390625 25.796875q1.90625 11.0 5.5 17.09375q3.609375 6.109375 9.8125 6.296875l0 18.609375z" fill-rule="nonzero"/><path fill="#004065" d="m261.03674 222.22736q-17.20314 0 -26.968765 -6.765625q-9.765625 -6.765625 -13.640625 -18.453125q-3.859375 -11.703125 -3.859375 -26.984375l0 -55.859367q0 -16.046875 3.859375 -27.84375q3.875 -11.796875 13.640625 -18.171875q9.765625 -6.375 26.968765 -6.375q16.234375 0 25.421875 5.515625q9.1875 5.5 13.046875 15.75q3.875 10.234375 3.875 23.765625l0 13.15625l-27.453125 0l0 -13.53125q0 -6.578125 -0.6875 -11.984375q-0.671875 -5.421875 -3.671875 -8.609375q-2.984375 -3.1875 -10.34375 -3.1875q-7.3437653 0 -10.73439 3.390625q-3.375 3.375 -4.34375 9.078125q-0.96875 5.703125 -0.96875 12.859375l0 68.04687q0 8.5 1.359375 14.015625q1.359375 5.515625 4.9375 8.3125q3.578125 2.796875 9.750015 2.796875q7.15625 0 10.15625 -3.375q3.0 -3.390625 3.765625 -8.984375q0.78125 -5.609375 0.78125 -12.578125l0 -14.109375l27.453125 0l0 12.5625q0 13.921875 -3.671875 24.65625q-3.671875 10.734375 -12.859375 16.828125q-9.1875 6.078125 -25.8125 6.078125zm61.10031 -2.125l0 -111.74999l26.28125 0l0 17.21875q5.796875 -9.859375 11.59375 -14.203125q5.8125 -4.359375 12.765625 -4.359375q1.15625 0 2.03125 0.09375q0.875 0.09375 2.03125 0.296875l0 27.249992q-2.3125 -0.96875 -5.125 -1.640625q-2.796875 -0.671875 -5.703125 -0.671875q-5.21875 0 -9.46875 2.515625q-4.25 2.5 -8.125 8.3125l0 76.9375l-26.28125 0zm68.43234 30.359375l0 -18.953125q6.765625 0 11.015625 -0.78125q4.25 -0.765625 6.1875 -2.703125q1.9375 -1.921875 1.9375 -5.40625q0 -2.515625 -1.265625 -7.921875q-1.25 -5.421875 -2.796875 -11.796875l-24.546875 -94.54687l25.515625 0l14.5 73.67187l12.5625 -73.67187l25.328125 0l-26.09375 116.20312q-2.140625 9.859375 -7.171875 15.453125q-5.015625 5.609375 -12.5625 8.03125q-7.53125 2.421875 -17.578125 2.421875l-5.03125 0zm110.96927 -28.625q-14.109375 0 -23.203125 -7.53125q-9.078125 -7.546875 -12.953125 -22.046875l19.53125 -7.53125q2.3125 9.078125 6.171875 13.921875q3.875 4.828125 10.0625 4.828125q4.640625 0 6.953125 -2.3125q2.328125 -2.328125 2.328125 -6.390625q0 -4.640625 -2.8125 -8.40625q-2.796875 -3.765625 -9.5625 -9.375l-13.53125 -11.40625q-7.34375 -6.375 -11.890625 -13.046875q-4.546875 -6.671875 -4.546875 -16.734375q0 -9.078117 4.15625 -15.546867q4.15625 -6.484375 11.40625 -10.0625q7.25 -3.578125 16.15625 -3.578125q13.5312195 0 21.734344 8.03125q8.21875 8.015625 10.546875 20.968742l-17.203125 7.34375q-0.96875 -4.640625 -2.8125 -8.59375q-1.8280945 -3.96875 -4.7343445 -6.4843674q-2.890625 -2.515625 -6.765625 -2.515625q-4.0625 0 -6.484375 2.515625q-2.40625 2.5156174 -2.40625 6.3749924q0 3.296875 2.796875 6.78125q2.8125 3.46875 8.03125 7.921875l13.7187195 12.375q4.453125 3.859375 8.515625 8.3125q4.0625 4.4375 6.765625 9.953125q2.703125 5.5 2.703125 12.65625q0 9.671875 -4.359375 16.25q-4.34375 6.5625 -11.796875 9.953125q-7.4374695 3.375 -16.515594 3.375zm79.26877 -0.375q-10.640625 0 -16.734375 -3.484375q-6.078125 -3.484375 -8.59375 -10.046875q-2.515625 -6.578125 -2.515625 -15.671875l0 -66.49999l-11.21875 0l0 -17.40625l11.21875 0l0 -33.4375l26.484375 0l0 33.4375l17.015625 0l0 17.40625l-17.015625 0l0 64.18749q0 5.796875 2.515625 8.21875q2.515625 2.40625 7.53125 2.40625q2.140625 0 4.15625 -0.1875q2.03125 -0.1875 3.96875 -0.390625l0 20.109375q-3.28125 0.390625 -7.640625 0.875q-4.34375 0.484375 -9.171875 0.484375zm53.54431 0.375q-7.53125 0 -12.953125 -3.953125q-5.40625 -3.96875 -8.3125 -10.046875q-2.890625 -6.09375 -2.890625 -12.671875q0 -10.4375 3.859375 -17.59375q3.859375 -7.15625 10.234375 -11.984375q6.390625 -4.84375 14.5 -8.40625q8.124939 -3.578125 16.437439 -6.484375l0 -9.671875q0 -4.828125 -0.671875 -8.109375q-0.671875 -3.296875 -2.515625 -5.0312424q-1.828125 -1.734375 -5.703125 -1.734375q-3.281189 0 -5.312439 1.546875q-2.03125 1.5468674 -2.90625 4.3593674q-0.859375 2.796875 -1.0625 6.46875l-0.375 6.765625l-24.9375 -0.96875q0.578125 -19.343742 9.5625 -28.515617q8.984375 -9.1875 27.359314 -9.1875q16.8125 0 24.453125 9.28125q7.640625 9.28125 7.640625 25.124992l0 51.625q0 6.1875 0.28125 11.21875q0.296875 5.015625 0.78125 9.078125q0.484375 4.0625 0.859375 7.15625l-23.578125 0q-0.578125 -3.859375 -1.453125 -8.78125q-0.875 -4.9375 -1.25 -7.265625q-1.9375 6.765625 -7.359375 12.28125q-5.406189 5.5 -14.687439 5.5zm9.671875 -19.515625q2.515564 0 4.734314 -1.25q2.21875 -1.265625 3.953125 -3.0q1.75 -1.75 2.515625 -3.09375l0 -31.140625q-4.25 2.515625 -8.015625 5.03125q-3.765564 2.515625 -6.578064 5.515625q-2.796875 3.0 -4.25 6.484375q-1.453125 3.46875 -1.453125 8.109375q0 6.1875 2.421875 9.765625q2.421875 3.578125 6.671875 3.578125zm57.806213 17.78125l0 -156.59375l26.09375 0l0 156.59375l-26.09375 0zm127.79114 1.734375q-12.1875 0 -20.109375 -4.53125q-7.921875 -4.546875 -11.890625 -13.25q-3.96875 -8.703125 -3.96875 -21.078125l0 -37.5q0 -12.375 3.96875 -21.062492q3.96875 -8.703125 11.890625 -13.25q7.921875 -4.546875 20.109375 -4.546875q12.171875 0 20.1875 4.546875q8.03125 4.546875 11.984375 13.25q3.96875 8.687492 3.96875 21.062492l0 37.5q0 12.375 -3.96875 21.078125q-3.953125 8.703125 -11.984375 13.25q-8.015625 4.53125 -20.1875 4.53125zm0.1875 -18.171875q4.453125 0 6.578125 -2.5q2.125 -2.515625 2.703125 -6.859375q0.578125 -4.359375 0.578125 -9.578125l0 -40.984375q0 -5.21875 -0.578125 -9.46875q-0.578125 -4.265625 -2.703125 -6.8749924q-2.125 -2.609375 -6.578125 -2.609375q-4.453125 0 -6.578125 2.609375q-2.125 2.6093674 -2.796875 6.8749924q-0.671875 4.25 -0.671875 9.46875l0 40.984375q0 5.21875 0.671875 9.578125q0.671875 4.34375 2.796875 6.859375q2.125 2.5 6.578125 2.5zm53.933105 16.4375l0 -111.74999l26.296875 0l0 11.21875q6.0 -5.796875 12.65625 -9.375q6.671875 -3.578125 14.40625 -3.578125q6.96875 0 11.015625 3.390625q4.0625 3.375 6.0 8.984375q1.9375 5.609375 1.9375 12.171867l0 88.9375l-26.296875 0l0 -83.71875q0 -5.015625 -1.546875 -7.71875q-1.546875 -2.7187424 -5.984375 -2.7187424q-2.71875 0 -5.90625 1.546875q-3.1875 1.5468674 -6.28125 3.8749924l0 88.734375l-26.296875 0zm170.91321 1.359375q-10.640625 0 -16.734375 -3.484375q-6.078125 -3.484375 -8.59375 -10.046875q-2.515625 -6.578125 -2.515625 -15.671875l0 -66.49999l-11.21875 0l0 -17.40625l11.21875 0l0 -33.4375l26.484375 0l0 33.4375l17.015625 0l0 17.40625l-17.015625 0l0 64.18749q0 5.796875 2.515625 8.21875q2.515625 2.40625 7.53125 2.40625q2.140625 0 4.15625 -0.1875q2.03125 -0.1875 3.96875 -0.390625l0 20.109375q-3.28125 0.390625 -7.640625 0.875q-4.34375 0.484375 -9.171875 0.484375zm32.278687 -1.359375l0 -156.59375l26.296875 0l0 55.484375q5.796875 -5.796875 12.65625 -9.078125q6.875 -3.296875 14.984375 -3.296875q6.765625 0 10.828125 3.390625q4.0625 3.375 5.984375 8.984375q1.9375 5.609375 1.9375 12.171867l0 88.9375l-26.28125 0l0 -83.71875q0 -5.015625 -1.546875 -7.71875q-1.546875 -2.7187424 -6.0 -2.7187424q-2.703125 0 -6.09375 1.546875q-3.375 1.5468674 -6.46875 4.0624924l0 88.546875l-26.296875 0zm125.86401 1.734375q-12.578125 0 -20.5 -4.734375q-7.921875 -4.734375 -11.703125 -13.90625q-3.765625 -9.1875 -3.765625 -22.140625l0 -33.640625q0 -13.34375 3.765625 -22.421867q3.78125 -9.09375 11.796875 -13.734375q8.03125 -4.640625 20.40625 -4.640625q13.328125 0 20.765625 5.03125q7.453125 5.015625 10.640625 14.59375q3.1875 9.562492 3.1875 23.296867l0 15.84375l-44.453125 0l0 22.046875q0 5.40625 1.0625 8.890625q1.0625 3.484375 3.375 5.03125q2.328125 1.546875 5.609375 1.546875q3.484375 0 5.609375 -1.640625q2.125 -1.65625 3.09375 -4.84375q0.96875 -3.1875 0.96875 -8.015625l0 -9.28125l24.546875 0l0 7.53125q0 17.015625 -8.515625 26.109375q-8.5 9.078125 -25.890625 9.078125zm-9.859375 -69.40625l19.71875 0l0 -10.625q0 -5.796875 -0.96875 -9.375q-0.96875 -3.578125 -3.09375 -5.2187424q-2.125 -1.640625 -6.0 -1.640625q-3.46875 0 -5.609375 1.734375q-2.125 1.7343674 -3.09375 5.7968674q-0.953125 4.0625 -0.953125 11.609375l0 7.71875zm127.390625 67.671875l-22.21875 -156.59375l23.96875 0l12.953125 101.49999l16.234375 -101.10937l19.53125 0l16.625 101.10937l12.765625 -101.49999l23.578125 0l-21.84375 156.59375l-23.203125 0l-17.390625 -104.98437l-17.21875 104.98437l-23.78125 0zm152.1615 1.734375q-12.578125 0 -20.5 -4.734375q-7.921875 -4.734375 -11.703125 -13.90625q-3.765625 -9.1875 -3.765625 -22.140625l0 -33.640625q0 -13.34375 3.765625 -22.421867q3.78125 -9.09375 11.796875 -13.734375q8.03125 -4.640625 20.40625 -4.640625q13.328125 0 20.765625 5.03125q7.453125 5.015625 10.640625 14.59375q3.1875 9.562492 3.1875 23.296867l0 15.84375l-44.453125 0l0 22.046875q0 5.40625 1.0625 8.890625q1.0625 3.484375 3.375 5.03125q2.328125 1.546875 5.609375 1.546875q3.484375 0 5.609375 -1.640625q2.125 -1.65625 3.09375 -4.84375q0.96875 -3.1875 0.96875 -8.015625l0 -9.28125l24.546875 0l0 7.53125q0 17.015625 -8.515625 26.109375q-8.5 9.078125 -25.890625 9.078125zm-9.859375 -69.40625l19.71875 0l0 -10.625q0 -5.796875 -0.96875 -9.375q-0.96875 -3.578125 -3.09375 -5.2187424q-2.125 -1.640625 -6.0 -1.640625q-3.46875 0 -5.609375 1.734375q-2.125 1.7343674 -3.09375 5.7968674q-0.953125 4.0625 -0.953125 11.609375l0 7.71875zm110.380615 69.40625q-6.1875 0 -11.609375 -2.890625q-5.40625 -2.90625 -10.046875 -7.15625l0 8.3125l-26.28125 0l0 -156.59375l26.28125 0l0 53.359375q4.84375 -4.640625 10.546875 -7.4375q5.703125 -2.8125 12.28125 -2.8125q7.53125 0 12.359375 3.484375q4.84375 3.46875 7.546875 9.171875q2.703125 5.703125 3.765625 12.187492q1.0625 6.46875 1.0625 12.46875l0 37.890625q0 11.015625 -2.609375 20.109375q-2.609375 9.078125 -8.3125 14.5q-5.703125 5.40625 -14.984375 5.40625zm-10.046875 -18.359375q4.25 0 6.28125 -2.796875q2.03125 -2.8125 2.703125 -7.546875q0.6875 -4.734375 0.6875 -10.34375l0 -40.015625q0 -5.21875 -0.78125 -9.375q-0.765625 -4.15625 -2.796875 -6.6718674q-2.03125 -2.515625 -6.28125 -2.515625q-3.09375 0 -6.0 1.453125q-2.90625 1.453125 -5.421875 3.1874924l0 70.5625q2.515625 1.734375 5.515625 2.90625q3.0 1.15625 6.09375 1.15625z" fill-rule="nonzero"/><path fill="#004065" d="m1623.4478 257.30548l0 -18.796875q6.1875 0 9.890625 -6.203125q3.703125 -6.203125 5.5 -17.296875q1.796875 -11.109375 2.390625 -25.90625q0.609375 -14.796875 0.609375 -32.0q0 -17.203125 -0.609375 -32.093742q-0.59375 -14.90625 -2.296875 -26.0q-1.6875 -11.109375 -5.390625 -17.40625q-3.703125 -6.296875 -10.09375 -6.5l0 -18.59375q12.390625 0 20.484375 5.296875q8.109375 5.296875 12.90625 15.0q4.796875 9.703125 7.0 22.40625q2.203125 12.6875 2.796875 27.390625q0.609375 14.703117 0.609375 30.499992q0 15.0 -0.609375 29.609375q-0.59375 14.59375 -2.796875 27.390625q-2.203125 12.796875 -7.0 22.5q-4.796875 9.703125 -12.90625 15.203125q-8.09375 5.5 -20.484375 5.5z" fill-rule="nonzero"/></g></svg>
